<?xml version="1.0" encoding="UTF-8" standalone="no"?>
<!-- Created with Inkscape (http://www.inkscape.org/) -->

<svg
   xmlns:dc="http://purl.org/dc/elements/1.1/"
   xmlns:cc="http://creativecommons.org/ns#"
   xmlns:rdf="http://www.w3.org/1999/02/22-rdf-syntax-ns#"
   xmlns:svg="http://www.w3.org/2000/svg"
   xmlns="http://www.w3.org/2000/svg"
   xmlns:sodipodi="http://sodipodi.sourceforge.net/DTD/sodipodi-0.dtd"
   xmlns:inkscape="http://www.inkscape.org/namespaces/inkscape"
   width="48"
   height="48"
   viewBox="0 0 48 48"
   version="1.1"
   id="svg8"
   inkscape:version="0.92.4 5da689c313, 2019-01-14"
   sodipodi:docname="dash-button-active1-hover.svg">
  <defs
     id="defs2" />
  <sodipodi:namedview
     id="base"
     pagecolor="#545354"
     bordercolor="#666666"
     borderopacity="1.0"
     inkscape:pageopacity="0"
     inkscape:pageshadow="2"
     inkscape:zoom="11.313708"
     inkscape:cx="-3.1066197"
     inkscape:cy="28.965403"
     inkscape:document-units="px"
     inkscape:current-layer="layer1"
     showgrid="true"
     units="px"
     inkscape:window-width="1920"
     inkscape:window-height="905"
     inkscape:window-x="0"
     inkscape:window-y="0"
     inkscape:window-maximized="1">
    <inkscape:grid
       type="xygrid"
       id="grid812" />
  </sodipodi:namedview>
  <metadata
     id="metadata5">
    <rdf:RDF>
      <cc:Work
         rdf:about="">
        <dc:format>image/svg+xml</dc:format>
        <dc:type
           rdf:resource="http://purl.org/dc/dcmitype/StillImage" />
        <dc:title />
      </cc:Work>
    </rdf:RDF>
  </metadata>
  <g
     inkscape:label="Layer 1"
     inkscape:groupmode="layer"
     id="layer1"
     transform="translate(0,-80.009937)">
    <g
       id="g2001">
      <g
         id="g5148">
        <rect
           ry="2.0000036"
           style="fill:#ffffff;fill-opacity:0.1254902;stroke:none;stroke-width:1.09090912;stroke-opacity:1"
           id="rect4532"
           width="44"
           height="44.000004"
           x="2"
           y="82.009933" />
      </g>
      <path
         style="fill:#ffffff;fill-opacity:0.04705882;stroke:none;stroke-width:1.09090912;stroke-opacity:1"
         d="m 4,82.009937 c -1.108002,0 -2,0.891998 -2,2 v 40.000003 c 0,1.108 0.891998,2 2,2 h 40 c 1.108002,0 2,-0.892 2,-2 V 84.009937 c 0,-1.108002 -0.891998,-2 -2,-2 z m 0,1 h 40 c 0.554,0 1,0.446 1,1 v 40.000003 c 0,0.554 -0.446,1 -1,1 H 4 c -0.554,0 -1,-0.446 -1,-1 V 84.009937 c 0,-0.554 0.446,-1 1,-1 z"
         id="rect1967"
         inkscape:connector-curvature="0" />
    </g>
  </g>
</svg>
